<svg fill="#FFFFFF" height="24" viewBox="0 0 24 24" width="24" xmlns="http://www.w3.org/2000/svg">
  <path d="M 4.9902344 3 C 3.8802344 3 3.0097656 3.9 3.0097656 5 L 3 19 C 3 20.1 3.8802344 21 4.9902344 21 L 19 21 C 20.1 21 21 20.1 21 19 L 21 5 C 21 3.9 20.1 3 19 3 L 4.9902344 3 z M 4.9902344 5 L 19 5 L 19 15 L 15 15 C 15 16.66 13.65 18 12 18 C 10.35 18 9 16.66 9 15 L 4.9902344 15 L 4.9902344 5 z M 11.955078 6.9921875 L 7.9550781 10.992188 L 9.9550781 10.992188 L 9.9550781 13.992188 L 13.955078 13.992188 L 13.955078 10.992188 L 15.955078 10.992188 L 11.955078 6.9921875 z "
     id="path3338" />
  <path  d="M0 0h24v24H0V0z" fill="none" />
</svg>
