<?xml version="1.0" encoding="utf-8"?>
<!-- Generator: Adobe Illustrator 17.0.0, SVG Export Plug-In . SVG Version: 6.00 Build 0)  -->
<!DOCTYPE svg PUBLIC "-//W3C//DTD SVG 1.0//EN" "http://www.w3.org/TR/2001/REC-SVG-20010904/DTD/svg10.dtd">
<svg version="1.0" id="Layer_1" xmlns="http://www.w3.org/2000/svg" xmlns:xlink="http://www.w3.org/1999/xlink" x="0px" y="0px"
	 width="171.814px" height="150.851px" viewBox="0 0 171.814 150.851" enable-background="new 0 0 171.814 150.851"
	 xml:space="preserve">
<g>
	<g>
		<path fill="#FFFFFF" d="M116.35,100.55c-2.509,3.296-7.214,3.934-10.51,1.426L80.988,83.778c-3.296-2.509-3.934-7.214-1.426-10.51
			l0,0c2.509-3.296,7.214-3.934,10.51-1.426l24.851,18.197C118.22,92.548,118.858,97.254,116.35,100.55L116.35,100.55z"/>
		<path fill="#FFFFFF" d="M83.956,24.038c3.273,0,5.925,2.653,5.925,5.925v46.254c0,3.273-2.653,5.925-5.925,5.925l0,0
			c-3.273,0-5.925-2.653-5.925-5.925V29.963C78.03,26.69,80.683,24.038,83.956,24.038L83.956,24.038z"/>
	</g>
	<g>
		<path fill="#FFFFFF" d="M151.283,48.616L130.745,73.78l10.242,0.001c0.783,21.499-11.158,42.375-31.914,51.954
			c-22.434,10.354-48.118,4.551-63.899-13.087c-2.839-3.3-7.616-4.475-11.765-2.56c-5.015,2.314-7.203,8.256-4.889,13.27
			c0.336,0.728,0.756,1.389,1.231,1.992c0.127,0.176,0.276,0.362,0.458,0.565c21.446,23.996,56.608,32.12,87.245,17.979
			c27.626-12.75,43.788-40.177,43.553-68.744l0.057-1.367l10.75,0.001L151.283,48.616z"/>
		<path fill="#FFFFFF" d="M20.532,102.235l20.537-25.164L30.827,77.07C30.044,55.57,41.985,34.694,62.741,25.115
			c22.434-10.354,48.118-4.551,63.899,13.087c2.839,3.3,7.616,4.475,11.765,2.56c5.014-2.314,7.203-8.256,4.889-13.27
			c-0.336-0.728-0.756-1.389-1.231-1.992c-0.127-0.176-0.276-0.362-0.458-0.565C120.159,0.939,84.997-7.185,54.359,6.956
			C26.734,19.706,10.572,47.132,10.807,75.7l-0.057,1.367L0,77.066L20.532,102.235z"/>
	</g>
</g>
</svg>
